<svg xmlns="http://www.w3.org/2000/svg" viewBox="0 0 410 404"><defs><linearGradient id="g" x1="0%" y1="0%" x2="100%" y2="0%"><stop offset="0%" stop-color="#41D1FF"/><stop offset="100%" stop-color="#BD34FE"/></linearGradient><linearGradient id="b" x1="0%" y1="0%" x2="100%" y2="0%"><stop offset="0%" stop-color="#FFEA83"/><stop offset="8.333%" stop-color="#FFDD35"/><stop offset="100%" stop-color="#FFA800"/></linearGradient></defs><path d="M399.641 59.524 215.46 388.85c-2.483 4.44-8.862 4.466-11.382.048L10.402 59.56c-2.746-4.814 1.371-10.646 6.808-9.67l187.546 33.334a6.5 6.5 0 0 0 2.322 0l185.823-33.317c5.424-.973 9.546 4.796 6.819 9.62Z" fill="url(#g)"/><path d="m292.965 1.574-87.87 16.26a3.25 3.25 0 0 0-2.66 3.416l4.681 88.428a3.25 3.25 0 0 0 3.841 2.987l24.663-4.69c2.318-.441 4.413 1.507 3.936 3.838l-7.324 36.794c-.495 2.485 1.782 4.643 4.187 3.967l15.227-4.33c2.416-.687 4.71 1.31 4.215 3.806l-11.698 60.451c-.732 3.786 4.067 5.88 6.17 2.437l1.313-2.188 72.516-144.72c1.215-2.423-.88-5.186-3.54-4.672l-25.505 4.922c-2.396.462-4.435-1.817-3.759-4.161l16.646-58.147c.677-2.367-1.37-4.62-3.785-4.175l-39.93 7.327c-2.422.445-4.464-1.823-3.762-4.18l12.405-41.44c.716-2.393-1.38-4.66-3.808-4.193Z" fill="url(#b)"/></svg>

